<?xml version="1.0" encoding="UTF-8" standalone="no"?>
<svg
   xmlns:dc="http://purl.org/dc/elements/1.1/"
   xmlns:cc="http://creativecommons.org/ns#"
   xmlns:rdf="http://www.w3.org/1999/02/22-rdf-syntax-ns#"
   xmlns:svg="http://www.w3.org/2000/svg"
   xmlns="http://www.w3.org/2000/svg"
   xmlns:sodipodi="http://sodipodi.sourceforge.net/DTD/sodipodi-0.dtd"
   xmlns:inkscape="http://www.inkscape.org/namespaces/inkscape"
   id="generated_logo_1"
   viewBox="0 0 209.99179 175.04843"
   version="1.1"
   sodipodi:docname="logo_transparent.svg"
   width="209.99179"
   height="175.04843">
  <metadata
     id="metadata37">
    <rdf:RDF>
      <cc:Work
         rdf:about="">
        <dc:format>image/svg+xml</dc:format>
        <dc:type
           rdf:resource="http://purl.org/dc/dcmitype/StillImage" />
      </cc:Work>
    </rdf:RDF>
  </metadata>
  <defs
     id="defs35" />
  <sodipodi:namedview
     pagecolor="#ffffff"
     bordercolor="#666666"
     borderopacity="1"
     objecttolerance="10"
     gridtolerance="10"
     guidetolerance="10"
     inkscape:pageopacity="0"
     inkscape:pageshadow="2"
     inkscape:window-width="640"
     inkscape:window-height="480"
     id="namedview33" />
  <style
     type="text/css"
     class="styleimportlogofontmain"
     id="style2">@import url(&quot;https://fonts.googleapis.com/css2?family=Luckiest Guy:wght@400&quot;);#generated_logo_1 .maintypo { font-family: Luckiest Guy; font-weight: 400; }</style>
  <style
     type="text/css"
     class="styleimportlogofontsub"
     id="style4">@import url(&quot;https://fonts.googleapis.com/css2?family=Lora:wght@400;500;700&quot;);#generated_logo_1 .subtypo { font-family: Lora; font-weight: 400; }</style>
  <style
     type="text/css"
     class="styleimportlogopos"
     id="style6" />
  <g
     id="logo-elements"
     transform="translate(-35.154492,100)"
     transform-box="stroke-box">
    <g
       id="iconcontainer"
       transform="translate(140,-50)"
       transform-origin="center"
       transform-box="fill-box">
      <g
         class="iconBGGrpM"
         id="g10">
        <g
           class="iconBGGrp"
           transform="matrix(0.1,0,0,0.1,-50,-50)"
           id="g8" />
      </g>
      <g
         class="iconGrpM"
         id="g19">
        <g
           class="iconGrp"
           transform="matrix(0.1,0,0,0.1,-50,-50)"
           id="g17">
          <g
             class="lg_icon"
             id="lg_icon_82"
             stroke="none"
             stroke-width="1"
             fill="none"
             fill-rule="evenodd">
            <g
               id="0082">
              <path
                 id="FRAME"
                 style="fill:none"
                 d="M 0,0 V 1000 H 1000 V 0 Z" />
              <g
                 id="Icon"
                 transform="translate(300,110)"
                 fill="#000000">
                <path
                   d="m 200,250 c -27.614,0 -50,-22.386 -50,-50 0,-27.614 22.386,-50 50,-50 27.614,0 50,22.386 50,50 0,27.614 -22.386,50 -50,50 M 314.337,402.585 C 317.967,376.884 320,349.251 320,320 320,220 300,100 200,0 100,100 80,220 80,320 c 0,29.247 2.019,56.892 5.647,82.59 C 0.007,428.12 0,492.015 0,590 0,604.716 1.604,619.055 4.62,632.866 29.765,569.227 85.106,520.821 152.978,505.293 132.998,519.838 120,543.396 120,570 c 0,80 80,210 80,210 0,0 80,-130 80,-210 0,-26.604 -12.998,-50.162 -32.978,-64.707 67.872,15.528 123.213,63.934 148.357,127.573 C 398.396,619.055 400,604.716 400,590 400,492.009 399.993,428.112 314.337,402.585"
                   id="Fill-1" />
              </g>
            </g>
          </g>
        </g>
      </g>
    </g>
    <g
       id="textlines"
       transform="translate(65,50)">
      <g
         id="einsg">
        <g
           aria-label="rust"
           id="eins"
           style="text-anchor:middle;text-rendering:geometricPrecision">
          <path
             d="m 54.547363,-21.474609 q 0,1.333007 -0.239258,2.426757 -0.222168,1.076661 -0.717773,1.982422 -0.495605,0.905762 -1.281738,1.674805 -0.786133,0.769043 -1.896973,1.469727 l 4.067383,7.2460933 -7.69043,1.5039063 -2.631836,-7.2802736 -2.11914,0.06836 -0.307618,7.1093755 h -7.348632 q 0.08545,-3.8964844 0.153808,-7.7587895 0.08545,-3.862304 0.187989,-7.758789 0.03418,-1.965332 0.06836,-3.896484 0.03418,-1.931152 0.136719,-3.896484 1.196289,-0.444336 2.358398,-0.734864 1.162109,-0.290527 2.324219,-0.444336 1.179199,-0.170898 2.375488,-0.222168 1.213379,-0.06836 2.478027,-0.06836 1.948243,0 3.759766,0.546875 1.828613,0.529785 3.229981,1.606445 1.401367,1.076661 2.238769,2.683106 0.854492,1.606445 0.854491,3.742676 z m -7.65625,0.546875 q 0,-0.717774 -0.205078,-1.315918 -0.187988,-0.598145 -0.581055,-1.025391 -0.375976,-0.444336 -0.957031,-0.683594 -0.563965,-0.256347 -1.333008,-0.256347 -0.341796,0 -0.666504,0.05127 -0.324707,0.03418 -0.632324,0.119629 l -0.273437,6.357422 h 0.410156 q 0.734863,0 1.486816,-0.187988 0.769043,-0.187989 1.367188,-0.581055 0.615234,-0.393066 0.991211,-1.008301 0.393066,-0.615234 0.393066,-1.469727 z"
             style="font-weight:400;font-size:35px;font-family:'Luckiest Guy';letter-spacing:1;fill:#000000"
             id="path40" />
          <path
             d="m 77.080566,-29.0625 q -0.769043,6.015625 -1.315918,11.97998 -0.546875,5.947266 -1.04248,11.9799809 l -7.006836,0.5126954 0.307617,-2.631836 q -0.341797,0.3930664 -0.803222,0.6835938 -0.444336,0.2905273 -0.957032,0.4785156 -0.512695,0.1708984 -1.05957,0.2563476 -0.546875,0.068359 -1.04248,0.05127 -1.16211,-0.01709 -2.1875,-0.444336 -1.025391,-0.4443359 -1.879883,-1.1621093 -0.854492,-0.7348633 -1.538086,-1.6918946 -0.683594,-0.9741214 -1.16211,-2.0336914 -0.461425,-1.076661 -0.717773,-2.1875 -0.239258,-1.11084 -0.239258,-2.153321 0,-1.538086 0.05127,-3.178711 0.06836,-1.657714 0.222168,-3.315429 0.153808,-1.657715 0.393066,-3.28125 0.256348,-1.623535 0.632324,-3.110352 2.084961,0.102539 4.187012,0.187988 2.102051,0.08545 4.187012,0.05127 -0.393067,1.486816 -0.786133,2.990723 -0.375977,1.486816 -0.683594,3.007812 -0.307617,1.503906 -0.495605,3.024902 -0.187989,1.520997 -0.187989,3.076172 0,0.358887 0.03418,1.025391 0.03418,0.666504 0.170899,1.315918 0.153808,0.649414 0.444335,1.145019 0.307618,0.478516 0.854493,0.478516 0.649414,0 1.162109,-0.546875 0.512695,-0.563965 0.905762,-1.503906 0.393066,-0.939942 0.666504,-2.17041 0.290527,-1.230469 0.478515,-2.563477 0.205078,-1.350098 0.324707,-2.717285 0.119629,-1.367188 0.170899,-2.563477 0.06836,-1.213379 0.08545,-2.17041 0.03418,-0.957031 0.03418,-1.486816 0,-0.341797 -0.01709,-0.666504 -0.01709,-0.324707 -0.05127,-0.666504 1.11084,0.03418 2.20459,0.05127 1.09375,0.01709 2.20459,0.01709 0.854492,0 1.708984,0 0.871582,-0.01709 1.743164,-0.06836 z"
             style="font-weight:400;font-size:35px;font-family:'Luckiest Guy';letter-spacing:1;fill:#000000"
             id="path42" />
          <path
             d="m 96.486328,-13.75 q 0,2.341309 -0.820312,4.050293 -0.803223,1.6918945 -2.22168,2.8027343 -1.401367,1.09375 -3.29834,1.6235352 -1.879883,0.5126953 -4.050293,0.5126953 -0.837402,0 -1.845703,-0.222168 -0.991211,-0.2221679 -2.016602,-0.546875 -1.02539,-0.3417968 -1.982421,-0.7177734 -0.939942,-0.3930664 -1.674805,-0.7348633 l 0.751953,-6.6992191 q 1.452637,0.871582 3.212891,1.333008 1.777343,0.444336 3.486328,0.444336 0.324707,0 0.786133,-0.01709 0.461425,-0.03418 0.871582,-0.153808 0.427246,-0.136719 0.717773,-0.393067 0.290527,-0.256347 0.290527,-0.734863 0,-0.324707 -0.205078,-0.546875 -0.205078,-0.239258 -0.529785,-0.375977 -0.324707,-0.153808 -0.734863,-0.222168 -0.410156,-0.08545 -0.803223,-0.119628 -0.393066,-0.03418 -0.734863,-0.03418 -0.341797,0 -0.546875,0 -1.469727,0 -2.683106,-0.461426 -1.196289,-0.461426 -2.067871,-1.298828 -0.854492,-0.854492 -1.333008,-2.050781 -0.478515,-1.213379 -0.478515,-2.683106 0,-2.016601 0.803223,-3.605957 0.820312,-1.606445 2.17041,-2.717285 1.367187,-1.12793 3.127441,-1.726074 1.760254,-0.598145 3.640137,-0.598145 0.837402,0 1.726074,0.06836 0.888672,0.05127 1.760254,0.205078 0.888672,0.153808 1.726074,0.393066 0.837402,0.239258 1.589356,0.598145 l -0.649414,6.938476 q -1.16211,-0.393066 -2.443848,-0.649414 -1.264649,-0.273437 -2.478027,-0.273437 -0.222168,0 -0.581055,0.01709 -0.341797,0 -0.734863,0.05127 -0.375977,0.03418 -0.769043,0.119629 -0.393067,0.08545 -0.700684,0.239258 -0.307617,0.136719 -0.495605,0.375976 -0.187989,0.239258 -0.170899,0.563965 0.01709,0.375977 0.273438,0.581055 0.273437,0.205078 0.683593,0.307617 0.427246,0.08545 0.922852,0.08545 0.512695,0 1.008301,-0.01709 0.495605,-0.03418 0.922851,-0.05127 0.427246,-0.03418 0.700684,-0.01709 1.367187,0.08545 2.460937,0.581055 1.09375,0.495605 1.845703,1.315918 0.769043,0.820312 1.16211,1.965332 0.410156,1.127929 0.410156,2.495117 z"
             style="font-weight:400;font-size:35px;font-family:'Luckiest Guy';letter-spacing:1;fill:#000000"
             id="path44" />
          <path
             d="m 116.25098,-29.09668 -0.1709,7.246094 -5.09278,0.205078 -0.61523,15.8593752 -7.21191,0.3759766 -0.64942,-15.8593748 -5.092771,0.273437 0.205078,-8.066406 z"
             style="font-weight:400;font-size:35px;font-family:'Luckiest Guy';letter-spacing:1;fill:#000000"
             id="path46" />
        </g>
      </g>
      <g
         id="zweig"
         transform="translate(0,5)">
        <g
           aria-label="subdomain brute"
           id="zwei"
           style="dominant-baseline:text-before-edge;text-anchor:middle;text-rendering:geometricPrecision">
          <path
             d="m -24.920508,20.048437 q -1.25,0 -2.225,-0.35 -0.975,-0.324999 -1.6,-0.75 l 0.1,0.875 h -1.05 l -0.15,-4.299999 h 0.775 q 0.05,1.024999 0.575,1.85 0.525,0.799999 1.35,1.25 0.825,0.449999 1.775,0.449999 0.65,0 1.275,-0.199999 0.625,-0.225001 1.05,-0.650001 0.425,-0.45 0.425,-1.125 0,-0.7 -0.425,-1.149999 -0.4,-0.475001 -1.075,-0.825 -0.675,-0.35 -1.45,-0.650001 -0.75,-0.299999 -1.5,-0.625 -0.75,-0.324999 -1.4,-0.774999 -0.625,-0.45 -1,-1.100001 -0.375,-0.65 -0.375,-1.599999 0,-0.5250005 0.2,-1.1500005 0.2,-0.625 0.675,-1.175 0.475,-0.575 1.3,-0.925 0.825,-0.375 2.1,-0.375 0.675,0 1.5,0.225 0.825,0.225 1.6,0.85 l -0.05,-0.95 h 1.05 v 4.3750005 h -0.8 q -0.05,-0.875 -0.4,-1.6750005 -0.35,-0.825 -1.025,-1.35 -0.675,-0.55 -1.75,-0.55 -1.15,0 -1.8,0.575 -0.65,0.575 -0.65,1.325 0,0.7749995 0.475,1.3000005 0.5,0.5 1.275,0.875 0.775,0.375 1.65,0.724999 0.95,0.400001 1.85,0.875 0.9,0.475001 1.475,1.2 0.575,0.700001 0.575,1.825001 0,1.25 -0.65,2.074999 -0.625,0.825 -1.625,1.2 -0.975,0.4 -2.05,0.4 z"
             style="font-weight:400;font-size:25px;font-family:Lora;letter-spacing:1;dominant-baseline:text-before-edge;fill:#e4109a"
             id="path49" />
          <path
             d="m -12.198242,20.048437 q -1.35,0 -2.275,-0.5 -0.9,-0.5 -1.375,-1.7 -0.45,-1.2 -0.45,-3.25 v -4.449999 q 0,-0.4000005 0,-0.8000005 0.025,-0.4 0.1,-0.825 -0.425,0.025 -0.875,0.05 -0.425,0 -0.85,0.025 v -1.025 h 0.775 q 1.075,0 1.55,-0.2 0.5,-0.225 0.775,-0.475 h 0.725 v 7.6250005 q 0,2.149999 0.6,3.225 0.625,1.049999 2.1,1.024999 0.95,-0.025 1.7999998,-0.575 0.875,-0.574999 1.4,-1.35 v -6.424999 q 0,-0.6000005 0.025,-1.0250005 0.025,-0.45 0.1,-0.875 -0.45,0.025 -0.9,0.05 -0.45,0 -0.9,0.025 v -1.025 h 0.775 q 1.075,0 1.55,-0.2 0.5,-0.225 0.775,-0.475 h 0.725 l -0.025,9.4499995 q 0,0.400001 -0.025,1.125 -0.025,0.725 -0.075,1.225 0.45,-0.025 0.9,-0.05 0.45,-0.025 0.9,-0.05 v 1.05 h -3.575 q -0.075,-0.425 -0.125,-0.8 -0.025,-0.375 -0.05,-0.7 -0.775,0.775 -1.875,1.350001 -1.0999998,0.549999 -2.1999998,0.549999 z"
             style="font-weight:400;font-size:25px;font-family:Lora;letter-spacing:1;dominant-baseline:text-before-edge;fill:#e4109a"
             id="path51" />
          <path
             d="m -0.73183594,4.0234375 q 0,-0.4 0,-0.75 0.025,-0.375 0.075,-0.875 -0.44999996,0.025 -0.89999996,0.05 -0.425,0.025 -0.875,0.05 v -1.05 q 1.1,0 1.69999996,-0.1 0.625,-0.1 0.925,-0.25 0.325,-0.15 0.5,-0.325 H 1.4181641 v 7.45 q 0.7,-0.7 1.65,-1.075 0.975,-0.4 2.125,-0.4 1.6,0 2.875,0.775 1.3,0.775 2.0499999,2.2 0.75,1.4250005 0.75,3.3749995 0,2.125 -0.9249999,3.7 -0.925,1.55 -2.4,2.4 -1.475,0.85 -3.175,0.85 -0.85,0 -1.875,-0.325 -1,-0.3 -1.80000004,-1.2 l -0.6,1.125 h -0.875 z M 1.4181641,15.723437 q 0,1.325 0.425,2.05 0.425,0.7 1.1,0.975001 0.675,0.274999 1.425,0.274999 1.2,0 2.075,-0.675 0.875,-0.675 1.35,-1.849999 0.5,-1.200001 0.5,-2.775001 0,-1.699999 -0.425,-2.974999 -0.425,-1.3000005 -1.275,-2.0250005 -0.85,-0.75 -2.15,-0.75 -0.825,0 -1.65,0.4 -0.8,0.375 -1.375,1.025 z"
             style="font-weight:400;font-size:25px;font-family:Lora;letter-spacing:1;dominant-baseline:text-before-edge;fill:#e4109a"
             id="path53" />
          <path
             d="m 19.368945,20.048437 q -1.525,0 -2.75,-0.75 -1.225,-0.775 -1.95,-2.2 -0.7,-1.424999 -0.7,-3.349999 0,-2.05 0.825,-3.625 0.825,-1.5750005 2.275,-2.4750005 1.475,-0.9 3.325,-0.9 0.825,0 1.625,0.225 0.825,0.2 1.3,0.475 v -3.425 q 0,-0.4 0,-0.75 0.025,-0.375 0.075,-0.875 -0.45,0.025 -0.9,0.05 -0.425,0.025 -0.875,0.05 v -1.05 q 1.1,0 1.7,-0.1 0.6,-0.1 0.9,-0.25 0.325,-0.15 0.5,-0.325 h 0.725 V 16.998438 q 0,0.399999 -0.025,0.799999 -0.025,0.4 -0.075,0.9 0.45,-0.025 0.875,-0.05 0.45,-0.025 0.9,-0.05 v 1.05 h -3.575 q -0.075,-0.375 -0.125,-0.675 -0.025,-0.325 -0.05,-0.625 -0.7,0.775001 -1.725,1.25 -1.025,0.45 -2.275,0.45 z m 0.9,-1.225 q 0.825,0 1.65,-0.475 0.85,-0.474999 1.4,-1.175 -0.025,-0.299999 -0.025,-0.625 0,-0.35 0,-0.749999 l 0.025,-7.2000005 q -0.6,-0.45 -1.325,-0.65 -0.7,-0.225 -1.45,-0.225 -1.25,0 -2.175,0.725 -0.925,0.725 -1.4,2.0249995 -0.475,1.300001 -0.425,3.050001 0.05,1.525 0.475,2.725 0.45,1.199999 1.25,1.899999 0.825,0.675 2,0.675 z"
             style="font-weight:400;font-size:25px;font-family:Lora;letter-spacing:1;dominant-baseline:text-before-edge;fill:#e4109a"
             id="path55" />
          <path
             d="m 36.160352,20.048437 q -1.75,0 -3.175,-0.799999 -1.425,-0.825001 -2.275,-2.25 -0.825,-1.450001 -0.825,-3.3 0,-1.975001 0.825,-3.55 0.825,-1.5750005 2.25,-2.4750005 1.425,-0.925 3.2,-0.925 1.75,0 3.175,0.85 1.425,0.825 2.275,2.25 0.85,1.4250005 0.85,3.2499995 0,1.925001 -0.85,3.525001 -0.825,1.574999 -2.25,2.5 -1.425,0.924999 -3.2,0.924999 z m 0.2,-1 q 1.325,0 2.1,-0.75 0.775,-0.75 1.1,-1.95 0.35,-1.199999 0.35,-2.524999 0,-1.125001 -0.225,-2.2 -0.2,-1.1 -0.65,-1.9750005 -0.45,-0.9 -1.175,-1.425 -0.7,-0.525 -1.7,-0.525 -1.3,0 -2.125,0.75 -0.825,0.75 -1.225,1.9500005 -0.375,1.199999 -0.375,2.574999 0,1.550001 0.425,2.950001 0.425,1.374999 1.3,2.249999 0.875,0.875 2.2,0.875 z"
             style="font-weight:400;font-size:25px;font-family:Lora;letter-spacing:1;dominant-baseline:text-before-edge;fill:#e4109a"
             id="path57" />
          <path
             d="m 45.608789,19.648437 v -0.75 q 0.775,0 1.075,-0.375 0.3,-0.399999 0.35,-1.075 0.05,-0.699999 0.05,-1.6 v -5.699999 q 0,-0.4000005 0,-0.8000005 0.025,-0.4 0.1,-0.825 -0.45,0.025 -0.9,0.05 -0.425,0.025 -0.875,0.05 v -1.05 q 1.1,0 1.65,-0.1 0.575,-0.1 0.85,-0.25 0.275,-0.15 0.45,-0.325 h 0.725 q 0.05,0.25 0.05,0.575 0.025,0.325 0.05,0.75 0.75,-0.65 1.725,-1.05 0.975,-0.425 1.95,-0.425 1.25,0 2.1,0.45 0.85,0.45 1.325,1.225 0.85,-0.7 1.95,-1.175 1.125,-0.5 2.2,-0.5 2.175,0 3.2,1.325 1.025,1.3 0.975,4.2749995 l -0.025,4.650001 q 0,0.5 -0.025,0.899999 0,0.375 -0.075,0.8 0.4,-0.025 0.775,-0.025 0.4,-0.025 0.8,-0.05 v 1.024999 h -5.1 v -0.75 q 0.775,0 1.075,-0.375 0.3,-0.399999 0.35,-1.075 0.05,-0.699999 0.05,-1.6 v -3.5 q 0,-2.149999 -0.7,-3.2249995 -0.675,-1.075 -2.15,-1.05 -0.775,0 -1.55,0.35 -0.775,0.35 -1.35,0.875 0.125,0.4 0.175,0.8750005 0.075,0.45 0.075,0.95 -0.025,1.449999 -0.025,2.924999 0,1.475001 -0.025,2.950001 0,0.5 -0.025,0.899999 0,0.375 -0.075,0.8 0.4,-0.025 0.775,-0.025 0.4,-0.025 0.8,-0.05 v 1.024999 h -5.1 v -0.75 q 0.775,0 1.05,-0.375 0.3,-0.399999 0.35,-1.075 0.075,-0.699999 0.075,-1.6 l 0.025,-3.5 q 0.025,-2.149999 -0.625,-3.2499995 -0.65,-1.1 -2.125,-1.075 -0.775,0 -1.525,0.35 -0.75,0.325 -1.275,0.85 0,0.3 0,0.65 0.025,0.3250005 0.025,0.7000005 v 6.425 q 0,0.5 -0.025,0.899999 0,0.375 -0.075,0.8 0.4,-0.025 0.775,-0.025 0.4,-0.025 0.8,-0.05 v 1.024999 z"
             style="font-weight:400;font-size:25px;font-family:Lora;letter-spacing:1;dominant-baseline:text-before-edge;fill:#e4109a"
             id="path59" />
          <path
             d="m 76.57207,19.648437 q -0.075,-0.425 -0.1,-0.75 -0.025,-0.325 -0.075,-0.675 -0.85,0.85 -1.85,1.35 -0.975,0.475 -2.075,0.475 -1.9,0 -2.825,-0.85 -0.925,-0.875 -0.925,-2.125 0,-1.149999 0.7,-1.975 0.725,-0.849999 1.85,-1.375 1.15,-0.55 2.475,-0.8 1.35,-0.274999 2.6,-0.25 v -1.549999 q 0,-0.875 -0.15,-1.6500005 -0.15,-0.775 -0.65,-1.275 -0.5,-0.5 -1.6,-0.525 -0.725,-0.025 -1.5,0.275 -0.75,0.3 -1.1,1.025 0.2,0.2 0.25,0.475 0.075,0.25 0.075,0.475 0,0.2999995 -0.25,0.7000005 -0.25,0.375 -0.875,0.349999 -0.525,0 -0.8,-0.349999 -0.275,-0.375 -0.275,-0.8750005 0,-0.85 0.625,-1.525 0.65,-0.675 1.775,-1.075 1.125,-0.4 2.55,-0.4 2.1,0 3.1,1.125 1,1.1 0.975,3.5000005 0,0.925 0,1.875 0,0.925 -0.025,1.875 0,0.924999 0,1.875 0,0.399999 -0.025,0.799999 -0.025,0.4 -0.075,0.9 0.45,-0.025 0.875,-0.05 0.45,-0.025 0.9,-0.05 v 1.05 z m -0.225,-6.124999 q -0.85,0.025 -1.8,0.225 -0.925,0.174999 -1.725,0.55 -0.775,0.374999 -1.275,0.999999 -0.475,0.600001 -0.45,1.475 0.05,0.925 0.6,1.4 0.575,0.450001 1.35,0.450001 1.025,0 1.775,-0.375 0.775,-0.400001 1.525,-1.100001 -0.025,-0.274999 -0.025,-0.6 0,-0.325 0,-0.674999 0,-0.125 0,-0.8 0.025,-0.675 0.025,-1.55 z"
             style="font-weight:400;font-size:25px;font-family:Lora;letter-spacing:1;dominant-baseline:text-before-edge;fill:#e4109a"
             id="path61" />
          <path
             d="m 82.862695,18.898437 q 0.775,0 1.075,-0.375 0.3,-0.399999 0.35,-1.075 0.05,-0.699999 0.05,-1.6 v -5.699999 q 0,-0.4000005 0.025,-0.7500005 0.025,-0.375 0.075,-0.875 -0.45,0.025 -0.9,0.05 -0.425,0.025 -0.875,0.05 v -1.05 q 1.1,0 1.7,-0.1 0.6,-0.1 0.9,-0.25 0.325,-0.15 0.5,-0.325 h 0.725 V 16.998438 q 0,0.5 -0.025,0.899999 0,0.375 -0.075,0.8 0.4,-0.025 0.775,-0.025 0.4,-0.025 0.8,-0.05 v 1.024999 h -5.1 z m 2.425,-14.4749995 q -0.525,0 -0.925,-0.425 -0.4,-0.425 -0.4,-1.05 0,-0.625 0.4,-1.05 0.425,-0.45 0.95,-0.45 0.575,0 0.95,0.45 0.4,0.425 0.4,1.05 0,0.625 -0.425,1.05 -0.4,0.425 -0.95,0.425 z"
             style="font-weight:400;font-size:25px;font-family:Lora;letter-spacing:1;dominant-baseline:text-before-edge;fill:#e4109a"
             id="path63" />
          <path
             d="m 90.893945,19.648437 v -0.75 q 0.775,0 1.075,-0.375 0.3,-0.399999 0.35,-1.075 0.05,-0.699999 0.05,-1.6 l 0.025,-5.699999 q 0,-0.4000005 0,-0.8000005 0.025,-0.4 0.1,-0.825 -0.45,0.025 -0.9,0.05 -0.425,0.025 -0.875,0.05 v -1.05 q 1.1,0 1.65,-0.1 0.575,-0.1 0.85,-0.25 0.275,-0.15 0.45,-0.325 h 0.725 q 0.025,0.175 0.025,0.4 0.025,0.225 0.05,0.5 0.025,0.275 0.025,0.625 0.55,-0.475 1.2,-0.85 0.675,-0.375 1.4,-0.6 0.75,-0.225 1.475,-0.225 2.175005,0 3.175005,1.375 1,1.35 1,4.2249995 v 4.650001 q 0,0.5 -0.025,0.899999 0,0.375 -0.075,0.8 0.4,-0.025 0.775,-0.025 0.4,-0.025 0.8,-0.05 v 1.024999 h -5.100005 v -0.75 q 0.775,0 1.075005,-0.375 0.3,-0.399999 0.35,-1.075 0.05,-0.699999 0.05,-1.6 v -3.5 q -0.025,-2.149999 -0.725005,-3.2499995 -0.675,-1.1 -2.15,-1.075 -0.9,0.025 -1.775,0.475 -0.85,0.45 -1.425,1.15 0.025,0.2 0.025,0.4499995 0,0.25 0,0.525001 l -0.025,6.375 q 0,0.5 -0.025,0.899999 0,0.375 -0.075,0.8 0.4,-0.025 0.775,-0.025 0.4,-0.025 0.8,-0.05 v 1.024999 z"
             style="font-weight:400;font-size:25px;font-family:Lora;letter-spacing:1;dominant-baseline:text-before-edge;fill:#e4109a"
             id="path65" />
          <path
             d="m 115.47129,4.0234375 q 0,-0.4 0,-0.75 0.025,-0.375 0.075,-0.875 -0.45,0.025 -0.9,0.05 -0.425,0.025 -0.875,0.05 v -1.05 q 1.1,0 1.7,-0.1 0.625,-0.1 0.925,-0.25 0.325,-0.15 0.5,-0.325 h 0.725 v 7.45 q 0.7,-0.7 1.65,-1.075 0.975,-0.4 2.125,-0.4 1.6,0 2.875,0.775 1.3,0.775 2.05,2.2 0.75,1.4250005 0.75,3.3749995 0,2.125 -0.925,3.7 -0.925,1.55 -2.4,2.4 -1.475,0.85 -3.175,0.85 -0.85,0 -1.875,-0.325 -1,-0.3 -1.8,-1.2 l -0.6,1.125 h -0.875 z m 2.15,11.6999995 q 0,1.325 0.425,2.05 0.425,0.7 1.1,0.975001 0.675,0.274999 1.425,0.274999 1.2,0 2.075,-0.675 0.875,-0.675 1.35,-1.849999 0.5,-1.200001 0.5,-2.775001 0,-1.699999 -0.425,-2.974999 -0.425,-1.3000005 -1.275,-2.0250005 -0.85,-0.75 -2.15,-0.75 -0.825,0 -1.65,0.4 -0.8,0.375 -1.375,1.025 z"
             style="font-weight:400;font-size:25px;font-family:Lora;letter-spacing:1;dominant-baseline:text-before-edge;fill:#e4109a"
             id="path67" />
          <path
             d="m 130.22207,18.898437 q 0.775,0 1.075,-0.375 0.3,-0.399999 0.35,-1.075 0.05,-0.699999 0.05,-1.6 v -5.699999 q 0,-0.4000005 0,-0.8000005 0.025,-0.4 0.1,-0.825 -0.45,0.025 -0.9,0.05 -0.425,0 -0.875,0.025 v -1.025 h 0.775 q 1.075,0 1.475,-0.2 0.425,-0.225 0.7,-0.475 h 0.725 q 0.05,0.4 0.075,1 0.025,0.575 0.05,1.475 0.375,-0.625 1.025,-1.225 0.65,-0.6 1.45,-1 0.825,-0.4 1.725,-0.4 0.7,0 1.225,0.375 0.525,0.375 0.525,1.2 0,0.2 -0.125,0.5 -0.125,0.275 -0.4,0.5 -0.275,0.2 -0.725,0.2 -0.55,-0.025 -0.875,-0.425 -0.325,-0.425 -0.25,-0.975 -0.625,-0.025 -1.3,0.325 -0.65,0.35 -1.225,0.975 -0.575,0.6000005 -1.025,1.4250005 l 0.025,6.15 q 0,0.5 -0.025,0.899999 0,0.375 -0.075,0.8 0.4,-0.025 0.775,-0.025 0.4,-0.025 0.8,-0.05 v 1.024999 h -5.125 z"
             style="font-weight:400;font-size:25px;font-family:Lora;letter-spacing:1;dominant-baseline:text-before-edge;fill:#e4109a"
             id="path69" />
          <path
             d="m 147.33691,20.048437 q -1.35,0 -2.275,-0.5 -0.9,-0.5 -1.375,-1.7 -0.45,-1.2 -0.45,-3.25 v -4.449999 q 0,-0.4000005 0,-0.8000005 0.025,-0.4 0.1,-0.825 -0.425,0.025 -0.875,0.05 -0.425,0 -0.85,0.025 v -1.025 h 0.775 q 1.075,0 1.55,-0.2 0.5,-0.225 0.775,-0.475 h 0.725 v 7.6250005 q 0,2.149999 0.6,3.225 0.625,1.049999 2.1,1.024999 0.95,-0.025 1.8,-0.575 0.875,-0.574999 1.4,-1.35 v -6.424999 q 0,-0.6000005 0.025,-1.0250005 0.025,-0.45 0.1,-0.875 -0.45,0.025 -0.9,0.05 -0.45,0 -0.9,0.025 v -1.025 h 0.775 q 1.075,0 1.55,-0.2 0.5,-0.225 0.775,-0.475 h 0.725 l -0.025,9.4499995 q 0,0.400001 -0.025,1.125 -0.025,0.725 -0.075,1.225 0.45,-0.025 0.9,-0.05 0.45,-0.025 0.9,-0.05 v 1.05 h -3.575 q -0.075,-0.425 -0.125,-0.8 -0.025,-0.375 -0.05,-0.7 -0.775,0.775 -1.875,1.350001 -1.1,0.549999 -2.2,0.549999 z"
             style="font-weight:400;font-size:25px;font-family:Lora;letter-spacing:1;dominant-baseline:text-before-edge;fill:#e4109a"
             id="path71" />
          <path
             d="m 162.70332,20.048437 q -0.575,0 -1.175,-0.174999 -0.6,-0.150001 -1.125,-0.625 -0.5,-0.475001 -0.8,-1.375 -0.3,-0.925001 -0.3,-2.425 l 0.05,-7.2500005 -1.925,0.025 v -1.075 q 0.65,-0.025 1.325,-0.475 0.675,-0.475 1.2,-1.275 0.55,-0.8 0.75,-1.75 h 0.85 v 3.5 h 4.2 v 0.975 l -4.2,0.05 -0.05,6.9500005 q 0,1.125 0.175,1.924999 0.2,0.775 0.625,1.175 0.425,0.400001 1.1,0.400001 0.7,0 1.3,-0.400001 0.625,-0.4 1.1,-1.099999 l 0.675,0.549999 q -0.55,0.825001 -1.1,1.3 -0.525,0.475 -1.025,0.7 -0.5,0.25 -0.925,0.3 -0.425,0.075 -0.725,0.075 z"
             style="font-weight:400;font-size:25px;font-family:Lora;letter-spacing:1;dominant-baseline:text-before-edge;fill:#e4109a"
             id="path73" />
          <path
             d="m 174.72129,20.048437 q -1.725,0 -3.125,-0.799999 -1.375,-0.825001 -2.175,-2.300001 -0.8,-1.499999 -0.8,-3.524999 0,-1.750001 0.775,-3.275 0.8,-1.5250005 2.225,-2.4500005 1.425,-0.95 3.3,-0.95 1.05,0 1.95,0.35 0.925,0.325 1.625,1.025 0.7,0.675 1.1,1.725 0.4,1.0250005 0.4,2.4250005 l -8.8,0.15 q 0,1.9 0.4,3.35 0.425,1.424999 1.35,2.225 0.925,0.774999 2.375,0.774999 0.775,0 1.575,-0.274999 0.825,-0.275001 1.525,-0.75 0.7,-0.475001 1.125,-1.050001 l 0.6,0.5 q -0.675,1.050001 -1.625,1.675001 -0.95,0.625 -1.95,0.899999 -1,0.275 -1.85,0.275 z m -3.45,-8.674999 h 6.375 q 0,-0.900001 -0.275,-1.7250005 -0.25,-0.85 -0.85,-1.375 -0.6,-0.55 -1.575,-0.55 -1.45,0 -2.425,0.875 -0.95,0.85 -1.25,2.7750005 z"
             style="font-weight:400;font-size:25px;font-family:Lora;letter-spacing:1;dominant-baseline:text-before-edge;fill:#e4109a"
             id="path75" />
        </g>
      </g>
    </g>
  </g>
</svg>
